<svg width="372" height="240" viewBox="0 0 372 240" fill="none" xmlns="http://www.w3.org/2000/svg">
<path opacity="0.4" d="M186 240C252.274 240 306 186.274 306 120C306 53.7258 252.274 0 186 0C119.726 0 66 53.7258 66 120C66 186.274 119.726 240 186 240Z" fill="#F1A0A0"/>
<path d="M12.5741 104.66C12.2827 104.66 11.994 104.603 11.7248 104.491C11.4556 104.38 11.2111 104.216 11.0053 104.01L0.649778 93.6542C0.245563 93.2357 0.0218835 92.6751 0.0269393 92.0933C0.0319952 91.5115 0.265372 90.9549 0.676798 90.5435C1.08822 90.1321 1.64478 89.8987 2.2266 89.8936C2.80843 89.8886 3.36896 90.1123 3.78747 90.5165L14.143 100.872C14.4532 101.182 14.6645 101.578 14.7501 102.008C14.8356 102.438 14.7917 102.885 14.6238 103.29C14.4559 103.695 14.1715 104.042 13.8067 104.286C13.4419 104.53 13.0129 104.66 12.5741 104.66Z" fill="#DD1111"/>
<path d="M2.21855 104.66C1.77974 104.66 1.35082 104.53 0.985991 104.286C0.62116 104.042 0.336802 103.695 0.168888 103.29C0.000973391 102.885 -0.0429693 102.438 0.0426134 102.008C0.128196 101.578 0.339477 101.182 0.649719 100.872L11.0052 90.5165C11.4237 90.1123 11.9842 89.8886 12.5661 89.8936C13.1479 89.8987 13.7044 90.1321 14.1159 90.5435C14.5273 90.9549 14.7607 91.5115 14.7657 92.0933C14.7708 92.6751 14.5471 93.2357 14.1429 93.6542L3.78741 104.01C3.58167 104.216 3.33716 104.38 3.06791 104.491C2.79867 104.603 2.51 104.66 2.21855 104.66Z" fill="#DD1111"/>
<path d="M309.073 203.637L306.117 210.417L324.308 218.348L327.264 211.567L309.073 203.637Z" fill="#DD1111"/>
<path d="M314.815 21.8534L297.705 31.9072L301.452 38.2845L318.562 28.2307L314.815 21.8534Z" fill="#DD1111"/>
<path d="M29.7065 39.0706L27.415 46.1035L46.2842 52.2516L48.5757 45.2187L29.7065 39.0706Z" fill="#DD1111"/>
<path d="M51.7964 157.027L35.5435 168.398L39.7818 174.456L56.0347 163.085L51.7964 157.027Z" fill="#DD1111"/>
<path d="M349.898 130.963L349.219 138.328L368.548 140.11L369.227 132.744L349.898 130.963Z" fill="#DD1111"/>
<path d="M369.582 77.98C369.291 77.9804 369.002 77.9232 368.733 77.8116C368.464 77.7 368.219 77.5363 368.013 77.3298L357.658 66.9743C357.446 66.7696 357.277 66.5248 357.161 66.254C357.044 65.9833 356.983 65.6921 356.981 65.3975C356.978 65.1029 357.034 64.8107 357.146 64.5379C357.257 64.2652 357.422 64.0175 357.63 63.8091C357.839 63.6008 358.087 63.436 358.359 63.3244C358.632 63.2129 358.924 63.1567 359.219 63.1593C359.513 63.1618 359.805 63.2231 360.075 63.3394C360.346 63.4556 360.591 63.6247 360.796 63.8366L371.151 74.1921C371.461 74.5025 371.673 74.8978 371.758 75.3282C371.844 75.7586 371.8 76.2047 371.632 76.6101C371.464 77.0155 371.18 77.362 370.815 77.6059C370.45 77.8497 370.021 77.9799 369.582 77.98Z" fill="#DD1111"/>
<path d="M359.227 77.98C358.788 77.9799 358.359 77.8497 357.994 77.6059C357.629 77.362 357.345 77.0155 357.177 76.6101C357.009 76.2047 356.965 75.7586 357.051 75.3282C357.136 74.8978 357.348 74.5025 357.658 74.1921L368.013 63.8366C368.218 63.6247 368.463 63.4556 368.734 63.3394C369.005 63.2231 369.296 63.1618 369.59 63.1593C369.885 63.1567 370.177 63.2129 370.45 63.3244C370.723 63.436 370.97 63.6008 371.179 63.8091C371.387 64.0175 371.552 64.2652 371.663 64.5379C371.775 64.8107 371.831 65.1029 371.829 65.3975C371.826 65.6921 371.765 65.9833 371.648 66.254C371.532 66.5248 371.363 66.7696 371.151 66.9743L360.796 77.3298C360.59 77.5362 360.345 77.6999 360.076 77.8114C359.807 77.923 359.518 77.9803 359.227 77.98Z" fill="#DD1111"/>
<path d="M186 200C230.183 200 266 164.183 266 120C266 75.8172 230.183 40 186 40C141.817 40 106 75.8172 106 120C106 164.183 141.817 200 186 200Z" fill="#DD1111"/>
<path d="M193.058 120L219.476 93.5814C219.953 93.1209 220.333 92.5702 220.595 91.9612C220.856 91.3523 220.994 90.6973 221 90.0346C221.006 89.3719 220.879 88.7146 220.628 88.1012C220.377 87.4878 220.007 86.9305 219.538 86.4619C219.069 85.9933 218.512 85.6226 217.899 85.3717C217.285 85.1207 216.628 84.9944 215.965 85.0002C215.303 85.0059 214.648 85.1436 214.039 85.4052C213.43 85.6668 212.879 86.0471 212.419 86.5238L186 112.942L159.581 86.5238C158.64 85.6146 157.379 85.1115 156.071 85.1229C154.762 85.1342 153.51 85.6592 152.585 86.5846C151.659 87.51 151.134 88.7618 151.123 90.0705C151.111 91.3792 151.615 92.64 152.524 93.5814L178.942 120L152.524 146.419C152.047 146.879 151.667 147.43 151.405 148.039C151.144 148.648 151.006 149.303 151 149.965C150.994 150.628 151.121 151.285 151.372 151.899C151.623 152.512 151.993 153.069 152.462 153.538C152.931 154.007 153.488 154.377 154.101 154.628C154.715 154.879 155.372 155.006 156.035 155C156.697 154.994 157.352 154.856 157.961 154.595C158.57 154.333 159.121 153.953 159.581 153.476L186 127.058L212.419 153.476C213.36 154.385 214.621 154.889 215.929 154.877C217.238 154.866 218.49 154.341 219.415 153.415C220.341 152.49 220.866 151.238 220.877 149.929C220.889 148.621 220.385 147.36 219.476 146.419L193.058 120Z" fill="white"/>
</svg>
