<svg width="372" height="236" viewBox="0 0 372 236" fill="none" xmlns="http://www.w3.org/2000/svg">
<path d="M12.5741 102.659C12.2827 102.66 11.994 102.602 11.7248 102.491C11.4556 102.379 11.2111 102.216 11.0053 102.009L0.649778 91.6537C0.245563 91.2352 0.0218835 90.6746 0.0269393 90.0928C0.0319952 89.511 0.265372 88.9544 0.676798 88.543C1.08822 88.1316 1.64478 87.8982 2.2266 87.8932C2.80843 87.8881 3.36896 88.1118 3.78747 88.516L14.143 98.8715C14.4532 99.1818 14.6645 99.5771 14.7501 100.008C14.8356 100.438 14.7917 100.884 14.6238 101.289C14.4559 101.695 14.1715 102.041 13.8067 102.285C13.4419 102.529 13.0129 102.659 12.5741 102.659Z" fill="#0CBC8B"/>
<path d="M2.21855 102.659C1.77974 102.659 1.35082 102.529 0.985991 102.285C0.62116 102.041 0.336802 101.695 0.168888 101.289C0.000973391 100.884 -0.0429693 100.438 0.0426134 100.008C0.128196 99.5771 0.339477 99.1818 0.649719 98.8715L11.0052 88.516C11.4237 88.1118 11.9842 87.8881 12.5661 87.8932C13.1479 87.8982 13.7044 88.1316 14.1159 88.543C14.5273 88.9544 14.7607 89.511 14.7657 90.0928C14.7708 90.6746 14.5471 91.2352 14.1429 91.6537L3.78741 102.009C3.58167 102.216 3.33716 102.379 3.06791 102.491C2.79867 102.602 2.51 102.66 2.21855 102.659Z" fill="#0CBC8B"/>
<path d="M309.073 201.636L306.117 208.417L324.308 216.347L327.264 209.567L309.073 201.636Z" fill="#0CBC8B"/>
<path d="M314.815 19.8534L297.705 29.9072L301.453 36.2845L318.562 26.2307L314.815 19.8534Z" fill="#0CBC8B"/>
<path d="M29.7065 37.0702L27.415 44.103L46.2842 50.2511L48.5757 43.2182L29.7065 37.0702Z" fill="#0CBC8B"/>
<path d="M51.7964 155.028L35.5435 166.399L39.7818 172.457L56.0347 161.086L51.7964 155.028Z" fill="#0CBC8B"/>
<path d="M349.898 128.962L349.219 136.328L368.548 138.11L369.227 130.744L349.898 128.962Z" fill="#0CBC8B"/>
<path d="M369.582 75.98C369.291 75.9804 369.002 75.9232 368.733 75.8116C368.464 75.7 368.219 75.5363 368.013 75.3298L357.658 64.9743C357.446 64.7696 357.277 64.5248 357.161 64.254C357.044 63.9833 356.983 63.6921 356.981 63.3975C356.978 63.1029 357.034 62.8107 357.146 62.5379C357.257 62.2652 357.422 62.0175 357.63 61.8091C357.839 61.6008 358.087 61.436 358.359 61.3244C358.632 61.2129 358.924 61.1567 359.219 61.1593C359.513 61.1618 359.805 61.2231 360.075 61.3394C360.346 61.4556 360.591 61.6247 360.796 61.8366L371.151 72.1921C371.461 72.5025 371.673 72.8978 371.758 73.3282C371.844 73.7586 371.8 74.2047 371.632 74.6101C371.464 75.0155 371.18 75.362 370.815 75.6059C370.45 75.8497 370.021 75.9799 369.582 75.98Z" fill="#0CBC8B"/>
<path d="M359.227 75.98C358.788 75.9799 358.359 75.8497 357.994 75.6059C357.629 75.362 357.345 75.0155 357.177 74.6101C357.009 74.2047 356.965 73.7586 357.051 73.3282C357.136 72.8978 357.348 72.5025 357.658 72.1921L368.013 61.8366C368.218 61.6247 368.463 61.4556 368.734 61.3394C369.005 61.2231 369.296 61.1618 369.59 61.1593C369.885 61.1567 370.177 61.2129 370.45 61.3244C370.723 61.436 370.97 61.6008 371.179 61.8091C371.387 62.0175 371.552 62.2652 371.663 62.5379C371.775 62.8107 371.831 63.1029 371.829 63.3975C371.826 63.6921 371.765 63.9833 371.648 64.254C371.532 64.5248 371.363 64.7696 371.151 64.9743L360.796 75.3298C360.59 75.5362 360.345 75.6999 360.076 75.8114C359.807 75.923 359.518 75.9803 359.227 75.98Z" fill="#0CBC8B"/>
<path opacity="0.4" d="M187.288 236C252.458 236 305.288 183.17 305.288 118C305.288 52.8304 252.458 0 187.288 0C122.119 0 69.2881 52.8304 69.2881 118C69.2881 183.17 122.119 236 187.288 236Z" fill="#0CBC8B"/>
<path d="M187.288 200.524C232.865 200.524 269.812 163.577 269.812 118C269.812 72.4236 232.865 35.4766 187.288 35.4766C141.712 35.4766 104.765 72.4236 104.765 118C104.765 163.577 141.712 200.524 187.288 200.524Z" fill="#0CBC8B"/>
<path d="M170.414 153.403C169.766 153.404 169.124 153.273 168.528 153.018C167.932 152.764 167.394 152.392 166.946 151.924L140.679 124.587C140.234 124.134 139.883 123.596 139.646 123.006C139.409 122.416 139.292 121.785 139.302 121.149C139.311 120.513 139.446 119.885 139.699 119.302C139.953 118.719 140.319 118.192 140.778 117.751C141.236 117.311 141.777 116.965 142.37 116.735C142.963 116.505 143.596 116.395 144.231 116.411C144.867 116.428 145.493 116.57 146.074 116.83C146.654 117.089 147.177 117.462 147.612 117.925L170.661 141.911L230.918 87.8566C231.387 87.4279 231.936 87.0963 232.533 86.8811C233.131 86.6659 233.765 86.5712 234.4 86.6025C235.034 86.6339 235.656 86.7907 236.23 87.0638C236.803 87.337 237.317 87.721 237.741 88.1939C238.165 88.6667 238.492 89.2189 238.701 89.8186C238.911 90.4182 238.999 91.0535 238.962 91.6876C238.925 92.3217 238.762 92.9422 238.483 93.513C238.205 94.0839 237.816 94.594 237.339 95.0137L173.624 152.171C172.743 152.965 171.599 153.404 170.414 153.403Z" fill="white"/>
</svg>
